# Blender v3.0.0 OBJ File: 'TestMeshes.blend'
# www.blender.org
mtllib Half Edge Mesh Test.mtl
o Half_Edge_Mesh_Test_a
v -20.000000 0.001427 2.000000
v -22.000000 0.001427 0.000000
v -20.000000 0.001427 0.000000
v -21.000000 0.001427 1.000000
v -22.000000 -0.999286 0.000000
v -22.000000 0.000000 1.000000
v -22.000000 -1.000713 1.000000
v -21.000000 -0.999286 1.000000
v -23.000000 -0.999286 0.000000
v -23.000000 -1.000710 1.000000
v -22.000000 -1.000713 2.000000
v -21.000000 -0.999286 2.000000
vt 0.002002 0.998999
vt 0.332332 0.998999
vt 0.332332 0.668669
vt 0.331331 0.667668
vt 0.001001 0.667668
vt 0.001001 0.997998
vt 0.335335 0.665666
vt 0.665666 0.335335
vt 0.665666 0.665666
vt 0.998999 0.001001
vt 0.667668 0.332332
vt 0.998999 0.332332
vt 0.001001 0.001001
vt 0.332332 0.332332
vt 0.332332 0.001001
vt 0.001001 0.334334
vt 0.332332 0.665666
vt 0.332332 0.334334
vt 0.334334 0.001001
vt 0.665666 0.332332
vt 0.665666 0.001001
vt 0.334334 0.334334
vt 0.334334 0.664665
vt 0.664665 0.334334
vt 0.667668 0.001001
vt 0.001001 0.332332
vt 0.001001 0.665666
vt 0.334334 0.332332
vn 0.0000 1.0000 0.0000
vn -0.0014 1.0000 0.0014
vn -1.0000 0.0000 0.0000
vn 0.0000 0.0000 1.0000
vn 0.0000 1.0000 0.0014
vn -0.0014 1.0000 0.0000
usemtl Material
s off
f 2/1/1 4/2/1 3/3/1
f 3/4/1 4/5/1 1/6/1
f 4/7/2 2/8/2 6/9/2
f 6/10/3 5/11/3 7/12/3
f 6/13/4 8/14/4 4/15/4
f 5/16/5 10/17/5 7/18/5
f 7/19/6 12/20/6 8/21/6
f 7/22/1 10/23/1 11/24/1
f 6/10/3 2/25/3 5/11/3
f 6/13/4 7/26/4 8/14/4
f 5/16/5 9/27/5 10/17/5
f 7/19/6 11/28/6 12/20/6
