# Blender v3.0.0 OBJ File: 'TestMeshes.blend'
# www.blender.org
mtllib Multiple on Edge.mtl
o T-Junction_Multpule_on_same_edge_Plane.004
v -5.000000 0.000000 1.000000
v -5.000000 0.000000 -1.000000
v -3.000000 0.000000 -1.000000
v -3.996547 0.000000 -0.003453
v -4.585038 0.000000 0.585038
v -3.539471 0.000000 -0.460529
v -3.000000 0.000000 1.000000
vt 1.000000 1.000000
vt 0.006618 1.000000
vt 0.730265 0.730265
vt 0.501727 0.501727
vt 0.207481 0.207481
vt 0.000000 1.000000
vt 0.000000 0.000000
vt 1.000000 0.000000
vn 0.0000 1.0000 0.0000
usemtl None
s off
f 3/1/1 2/2/1 6/3/1
f 4/4/1 2/2/1 5/5/1
f 6/3/1 2/2/1 4/4/1
f 5/5/1 2/6/1 1/7/1
f 1/7/1 7/8/1 3/1/1
