# Blender v3.0.0 OBJ File: 'TestMeshes.blend'
# www.blender.org
mtllib Multiple per edge of face.mtl
o T-Junction_multiple_on_faces_edges_Plane.007
v -11.423244 0.000000 -0.221663
v -11.154360 0.000000 0.509453
v -11.923244 0.000000 0.278337
v -10.923244 0.000000 0.278337
v -10.922815 0.001427 0.777984
v -11.923244 0.000000 0.778337
v -11.666124 0.000000 0.535457
v -11.428866 0.000000 0.278337
v -11.423244 0.000000 0.778337
v -11.423244 0.000000 0.778337
v -11.221581 0.000000 0.576674
v -11.302461 0.000000 0.278337
vt 0.500000 0.750000
vt 0.497189 0.500000
vt 0.560392 0.500000
vt 0.250000 0.500000
vt 0.250000 0.250000
vt 0.378560 0.371440
vt 0.625000 0.250000
vt 0.600832 0.350832
vt 0.500000 0.250000
vt 0.750000 0.500000
vt 0.750000 0.250000
vt 0.634442 0.384442
vt 0.625000 0.625000
vt 0.500000 0.250000
vn 0.0000 1.0000 0.0000
vn -0.0029 1.0000 -0.0029
usemtl None
s off
f 1/1/1 8/2/1 12/3/1
f 3/4/1 6/5/1 7/6/1
f 5/7/2 11/8/2 9/9/2
f 8/2/1 1/1/1 3/4/1
f 3/4/1 9/9/1 4/10/1
f 5/11/2 4/10/2 2/12/2
f 5/11/2 2/12/2 11/8/2
f 4/10/1 1/13/1 12/3/1
f 7/6/1 6/5/1 10/14/1
